<svg width="18" height="18" viewBox="0 0 18 18" fill="none" xmlns="http://www.w3.org/2000/svg">
<path d="M14.4893 6.44275H12.2393V4.75525C12.2393 3.86014 11.8837 3.0017 11.2507 2.36876C10.6178 1.73583 9.75936 1.38025 8.86426 1.38025C7.96915 1.38025 7.11071 1.73583 6.47777 2.36876C5.84484 3.0017 5.48926 3.86014 5.48926 4.75525V6.44275H3.23926C2.94089 6.44275 2.65474 6.56128 2.44376 6.77225C2.23278 6.98323 2.11426 7.26938 2.11426 7.56775V15.4427C2.11426 15.7411 2.23278 16.0273 2.44376 16.2382C2.65474 16.4492 2.94089 16.5677 3.23926 16.5677H14.4893C14.7876 16.5677 15.0738 16.4492 15.2848 16.2382C15.4957 16.0273 15.6143 15.7411 15.6143 15.4427V7.56775C15.6143 7.26938 15.4957 6.98323 15.2848 6.77225C15.0738 6.56128 14.7876 6.44275 14.4893 6.44275ZM9.42676 11.9714V13.7552C9.42676 13.9044 9.3675 14.0475 9.26201 14.153C9.15652 14.2585 9.01344 14.3177 8.86426 14.3177C8.71507 14.3177 8.572 14.2585 8.46651 14.153C8.36102 14.0475 8.30176 13.9044 8.30176 13.7552V11.9714C7.92645 11.8387 7.61013 11.5776 7.40872 11.2343C7.2073 10.8909 7.13375 10.4874 7.20106 10.0951C7.26838 9.70273 7.47222 9.34682 7.77657 9.09024C8.08093 8.83366 8.46618 8.69293 8.86426 8.69293C9.26233 8.69293 9.64759 8.83366 9.95194 9.09024C10.2563 9.34682 10.4601 9.70273 10.5275 10.0951C10.5948 10.4874 10.5212 10.8909 10.3198 11.2343C10.1184 11.5776 9.80207 11.8387 9.42676 11.9714ZM11.1143 6.44275H6.61426V4.75525C6.61426 4.15851 6.85131 3.58622 7.27327 3.16426C7.69522 2.7423 8.26752 2.50525 8.86426 2.50525C9.46099 2.50525 10.0333 2.7423 10.4552 3.16426C10.8772 3.58622 11.1143 4.15851 11.1143 4.75525V6.44275Z" fill="#A9ADA3"/>
</svg>
