<svg width="18" height="18" viewBox="0 0 18 18" fill="none" xmlns="http://www.w3.org/2000/svg">
<path d="M15.4202 5.06251L12.9375 2.57977C12.8334 2.47485 12.7095 2.39167 12.573 2.33506C12.4365 2.27844 12.2901 2.24953 12.1423 2.25001H3.375C3.07663 2.25001 2.79048 2.36853 2.5795 2.57951C2.36853 2.79049 2.25 3.07664 2.25 3.37501V14.625C2.25 14.9234 2.36853 15.2095 2.5795 15.4205C2.79048 15.6315 3.07663 15.75 3.375 15.75H14.625C14.9234 15.75 15.2095 15.6315 15.4205 15.4205C15.6315 15.2095 15.75 14.9234 15.75 14.625V5.85774C15.7505 5.70995 15.7216 5.56354 15.665 5.42702C15.6083 5.2905 15.5252 5.16659 15.4202 5.06251ZM11.8125 14.625H6.1875V10.6875H11.8125V14.625ZM14.625 14.625H12.9375V10.6875C12.9375 10.3891 12.819 10.103 12.608 9.89201C12.397 9.68103 12.1109 9.56251 11.8125 9.56251H6.1875C5.88913 9.56251 5.60298 9.68103 5.392 9.89201C5.18103 10.103 5.0625 10.3891 5.0625 10.6875V14.625H3.375V3.37501H12.1423L14.625 5.85774V14.625ZM11.25 5.06251C11.25 5.21169 11.1907 5.35476 11.0852 5.46025C10.9798 5.56574 10.8367 5.62501 10.6875 5.62501H6.75C6.60082 5.62501 6.45774 5.56574 6.35225 5.46025C6.24676 5.35476 6.1875 5.21169 6.1875 5.06251C6.1875 4.91332 6.24676 4.77025 6.35225 4.66476C6.45774 4.55927 6.60082 4.50001 6.75 4.50001H10.6875C10.8367 4.50001 10.9798 4.55927 11.0852 4.66476C11.1907 4.77025 11.25 4.91332 11.25 5.06251Z" fill="#A9ADA3"/>
</svg>
