<svg preserveAspectRatio="none" width="100%" height="100%" overflow="visible" style="display: block;" viewBox="0 0 60 60" fill="none" xmlns="http://www.w3.org/2000/svg">
<g id="icon">
<mask id="mask0_0_24" style="mask-type:alpha" maskUnits="userSpaceOnUse" x="0" y="0" width="60" height="60">
<rect id="Bounding box" width="60" height="60" fill="var(--fill-0, #D9D9D9)"/>
</mask>
<g mask="url(#mask0_0_24)">
<path id="globe" d="M30.0106 51.75C27.0035 51.75 24.1758 51.1794 21.5275 50.0381C18.8792 48.8969 16.5756 47.3479 14.6169 45.3913C12.6577 43.4346 11.1069 41.134 9.96437 38.4894C8.82146 35.8444 8.25 33.0181 8.25 30.0106C8.25 27.0035 8.82062 24.1758 9.96188 21.5275C11.1031 18.8792 12.6521 16.5756 14.6088 14.6169C16.5654 12.6577 18.866 11.1069 21.5106 9.96437C24.1556 8.82146 26.9819 8.25 29.9894 8.25C32.9965 8.25 35.8242 8.82063 38.4725 9.96188C41.1208 11.1031 43.4244 12.6521 45.3831 14.6087C47.3423 16.5654 48.8931 18.866 50.0356 21.5106C51.1785 24.1556 51.75 26.9819 51.75 29.9894C51.75 32.9965 51.1794 35.8242 50.0381 38.4725C48.8969 41.1208 47.3479 43.4244 45.3913 45.3831C43.4346 47.3423 41.134 48.8931 38.4894 50.0356C35.8444 51.1785 33.0181 51.75 30.0106 51.75ZM30 50C35.5833 50 40.3125 48.0625 44.1875 44.1875C48.0625 40.3125 50 35.5833 50 30V29.125C50 28.8333 49.9792 28.5417 49.9375 28.25C49.8542 29.3333 49.4479 30.2292 48.7188 30.9375C47.9896 31.6458 47.0833 32 46 32H39.25C38.15 32 37.2083 31.6092 36.425 30.8275C35.6417 30.0458 35.25 29.1063 35.25 28.0088V26.0131H27.25V22.0213C27.25 20.9238 27.6417 19.9792 28.425 19.1875C29.2083 18.3958 30.15 18 31.25 18H33.25V15.5C33.25 14.2083 33.6875 13.2187 34.5625 12.5312C35.4375 11.8437 36.4792 11.5 37.6875 11.5C36.4792 11 35.2377 10.625 33.9631 10.375C32.689 10.125 31.3679 10 30 10C24.4167 10 19.6875 11.9375 15.8125 15.8125C11.9375 19.6875 10 24.4167 10 30V30.9375C10 31.2292 10.0208 31.5417 10.0625 31.875H20.875C23.125 31.875 25.0208 32.6458 26.5625 34.1875C28.1042 35.7292 28.875 37.6156 28.875 39.8469V41.875H22.875V48.6875C23.9583 49.1042 25.1042 49.4271 26.3125 49.6562C27.5208 49.8854 28.75 50 30 50Z" fill="var(--fill-0, white)"/>
</g>
</g>
</svg>
