<svg width="40" height="40" viewBox="0 0 40 40" fill="none" xmlns="http://www.w3.org/2000/svg">
<rect x="0.5" y="0.5" width="39" height="39" rx="19.5" stroke="#DBD9D9" stroke-opacity="0.2"/>
<g clip-path="url(#clip0_195_478)">
<path d="M28.8958 10H11.1042C10.4942 10 10 10.4942 10 11.1042V28.8967C10 29.5058 10.4942 30 11.1042 30H20.6833V22.255H18.0767V19.2367H20.6833V17.0108C20.6833 14.4275 22.2608 13.0208 24.5658 13.0208C25.67 13.0208 26.6183 13.1033 26.895 13.14V15.84L25.2967 15.8408C24.0433 15.8408 23.8008 16.4367 23.8008 17.31V19.2375H26.79L26.4008 22.2558H23.8008V30H28.8975C29.5058 30 30 29.5058 30 28.8967V11.105C30 10.495 29.5058 10.0008 28.8958 10.0008V10Z" fill="#736E68"/>
</g>
<defs>
<clipPath id="clip0_195_478">
<rect width="20" height="20" fill="white" transform="translate(10 10)"/>
</clipPath>
</defs>
</svg>
