<svg width="40" height="40" viewBox="0 0 40 40" fill="none" xmlns="http://www.w3.org/2000/svg">
<path d="M20 17.5C18.9494 17.5004 17.934 17.8788 17.1393 18.5661C16.3447 19.2534 15.824 20.2037 15.6723 21.2434C15.5206 22.283 15.7481 23.3425 16.3132 24.2282C16.8783 25.1139 17.7433 25.7667 18.75 26.0672V28.75C18.75 29.0815 18.8817 29.3995 19.1161 29.6339C19.3505 29.8683 19.6685 30 20 30C20.3315 30 20.6495 29.8683 20.8839 29.6339C21.1183 29.3995 21.25 29.0815 21.25 28.75V26.0672C22.2567 25.7667 23.1217 25.1139 23.6868 24.2282C24.2519 23.3425 24.4794 22.283 24.3277 21.2434C24.176 20.2037 23.6553 19.2534 22.8607 18.5661C22.066 17.8788 21.0506 17.5004 20 17.5ZM20 23.75C19.6292 23.75 19.2666 23.64 18.9583 23.434C18.65 23.228 18.4096 22.9351 18.2677 22.5925C18.1258 22.2499 18.0887 21.8729 18.161 21.5092C18.2334 21.1455 18.412 20.8114 18.6742 20.5492C18.9364 20.287 19.2705 20.1084 19.6342 20.036C19.9979 19.9637 20.3749 20.0008 20.7175 20.1427C21.0601 20.2846 21.353 20.525 21.559 20.8333C21.765 21.1416 21.875 21.5042 21.875 21.875C21.875 22.3723 21.6775 22.8492 21.3258 23.2008C20.9742 23.5525 20.4973 23.75 20 23.75ZM32.5 12.5H27.5V8.75C27.5 6.76088 26.7098 4.85322 25.3033 3.4467C23.8968 2.04018 21.9891 1.25 20 1.25C18.0109 1.25 16.1032 2.04018 14.6967 3.4467C13.2902 4.85322 12.5 6.76088 12.5 8.75V12.5H7.5C6.83696 12.5 6.20107 12.7634 5.73223 13.2322C5.26339 13.7011 5 14.337 5 15V32.5C5 33.163 5.26339 33.7989 5.73223 34.2678C6.20107 34.7366 6.83696 35 7.5 35H32.5C33.163 35 33.7989 34.7366 34.2678 34.2678C34.7366 33.7989 35 33.163 35 32.5V15C35 14.337 34.7366 13.7011 34.2678 13.2322C33.7989 12.7634 33.163 12.5 32.5 12.5ZM15 8.75C15 7.42392 15.5268 6.15215 16.4645 5.21447C17.4021 4.27678 18.6739 3.75 20 3.75C21.3261 3.75 22.5979 4.27678 23.5355 5.21447C24.4732 6.15215 25 7.42392 25 8.75V12.5H15V8.75ZM32.5 32.5H7.5V15H32.5V32.5Z" fill="#73786B"/>
</svg>
